<svg xmlns="http://www.w3.org/2000/svg" viewBox="0 0 240 240" role="img" aria-labelledby="title desc">
  <title id="title">Federacio Catalana de Futbol</title>
  <desc id="desc">Logo rojo de la Federacio Catalana de Futbol</desc>
  <circle cx="120" cy="120" r="91" fill="none" stroke="#e21b23" stroke-width="12" stroke-dasharray="500 55" transform="rotate(-35 120 120)"/>
  <path d="M113 55c-28 4-49 28-49 57 0 31 25 57 57 57 22 0 41-12 51-30-8 7-18 11-29 11-25 0-45-20-45-45 0-21 14-39 34-44-6-4-12-6-19-6z" fill="#e21b23"/>
  <path d="M155 87c-20 0-36 16-36 36 0 12 6 23 15 29-2-5-3-10-3-15 0-18 14-32 32-32 10 0 19 4 25 11-3-17-17-29-33-29z" fill="#e21b23"/>
  <path d="M107 119c0-11 9-20 20-20 8 0 15 4 18 11-1-17-15-30-32-30-19 0-34 15-34 34 0 15 10 28 24 32-4-7-6-15-6-27z" fill="#fff"/>
  <path d="M93 187c18 12 39 18 61 16" fill="none" stroke="#e21b23" stroke-width="8" stroke-linecap="round"/>
  <text x="120" y="27" fill="#e21b23" font-family="Arial, sans-serif" font-size="14" font-weight="900" text-anchor="middle">FEDERACIO CATALANA DE FUTBOL</text>
  <text x="120" y="224" fill="#e21b23" font-family="Arial, sans-serif" font-size="13" font-weight="900" text-anchor="middle">1900-2025</text>
</svg>
